<svg id="Capa_1" enable-background="new 0 0 511.967 511.967" height="512" viewBox="0 0 511.967 511.967" width="512" xmlns="http://www.w3.org/2000/svg"><g><path d="m350.386 129.138c-17.805-25.064-34.623-48.739-49.083-71.602l-6.339-10.022-6.339 10.021c-12.757 20.169-27.731 41.486-40.766 59.883l12.238 8.672c11.051-15.596 23.487-33.28 34.865-50.684 13.131 20.098 27.797 40.743 43.194 62.419 51.667 72.73 105.092 147.938 105.092 210.09 0 82.188-66.521 149.052-148.285 149.052-35.057 0-69.077-12.532-95.796-35.288l-9.727 11.419c29.43 25.065 66.905 38.869 105.522 38.869 90.036 0 163.285-73.593 163.285-164.052.002-66.937-54.832-144.128-107.861-218.777z"/><path d="m154.243 304.114-14.295-4.541c-5.488 17.274-8.271 33.539-8.271 48.343 0 42.992 16.444 83.633 46.305 114.437l10.77-10.44c-27.132-27.99-42.074-64.923-42.074-103.997 0-13.261 2.546-27.999 7.565-43.802z"/><path d="m405.749 317.916h15v15h-15z"/><path d="m294.523 466.751.883 14.974c70.286-4.147 125.344-62.923 125.344-133.81h-15c-.001 62.957-48.857 115.156-111.227 118.836z"/><path d="m98.602 249.067-9.762 11.389c18.061 15.479 41.093 24.004 64.855 24.004 55.128 0 99.979-45.054 99.979-100.433 0-40.709-32.838-86.935-64.595-131.638-10.545-14.844-20.505-28.865-29.045-42.367l-6.338-10.022-6.339 10.022c-8.54 13.503-18.5 27.524-29.046 42.369-31.756 44.703-64.593 90.928-64.593 131.636 0 23.771 8.423 46.833 23.716 64.938l11.459-9.68c-13.01-15.401-20.175-35.026-20.175-55.258 0-35.923 31.428-80.165 61.821-122.949 8.176-11.508 16.003-22.528 23.156-33.281 7.152 10.752 14.98 21.771 23.155 33.279 30.395 42.785 61.823 87.027 61.823 122.951 0 47.108-38.121 85.433-84.979 85.433-20.183 0-39.748-7.242-55.092-20.393z"/><path d="m155.811 239.28 1.479 14.927c34.12-3.38 58.885-29.741 58.885-62.68h-15c-.001 25.47-18.655 45.106-45.364 47.753z"/><path d="m201.174 161.527h15v15h-15z"/></g></svg>