<?xml version="1.0"?>
<svg xmlns="http://www.w3.org/2000/svg" id="outline" viewBox="0 0 512 512" width="512" height="512"><path d="M62.50488,287.20117,37.8667,351.26172a88.014,88.014,0,0,0,19.91211,93.831l40.56445,40.56446.00134-.00147a7.96228,7.96228,0,0,0,4.08655,2.189l40,8A7.98421,7.98421,0,0,0,144,496H368a7.98421,7.98421,0,0,0,1.56885-.15527l40-8a7.96228,7.96228,0,0,0,4.08655-2.189l.00134.00147,40.56445-40.56446a88.014,88.014,0,0,0,19.91211-93.831l-24.63818-64.06055a72.21915,72.21915,0,0,0-40.46094-41.0039l-82.23071-32.89209A79.60025,79.60025,0,0,0,335.99951,176L336,80a64.07239,64.07239,0,0,0-64-64H248a31.97046,31.97046,0,0,0-25.59552,12.81665A23.87424,23.87424,0,0,0,208,24a32.03635,32.03635,0,0,0-32,32V176a79.48678,79.48678,0,0,0,9.25031,37.28369l-82.28449,32.91358A72.21915,72.21915,0,0,0,62.50488,287.20117ZM144.792,480l-31.62744-6.3252,3.27734-19.66406a23.99164,23.99164,0,0,1,17.853-19.33886l39.16113-9.79a.16833.16833,0,0,1,.15577.04394.16387.16387,0,0,1,.02.20508L161.34375,443.5625a8.00015,8.00015,0,0,0,4.4585,12.12988l46.07812,13.165A5.68063,5.68063,0,0,1,210.31934,480Zm197.63184-70.63965a16.22935,16.22935,0,0,0-15.34815,4.251A16.01967,16.01967,0,0,0,325.11841,416H312v24h17.05188l2.21228,3.31836-35.53906,10.1543A21.66906,21.66906,0,0,0,280.76025,480H264V400h80v9.75439ZM344,384H264V323.74707l40-33.333,40,33.333Zm-90.89618-72H182.09619l28.80029-24h71.00733ZM248,328v56H168V328Zm-80,72h80v80H231.23975a21.66922,21.66922,0,0,0-14.96436-26.52734l-35.53955-10.1543,6.20947-9.31348A16.02738,16.02738,0,0,0,188.06714,432H200V416H186.882a16.0532,16.0532,0,0,0-1.95722-2.38965,16.24046,16.24046,0,0,0-15.34912-4.25l-1.57568.394Zm199.208,80H301.68066a5.68055,5.68055,0,0,1-1.56054-11.14258l46.07763-13.165a8.00015,8.00015,0,0,0,4.4585-12.12988l-12.28711-18.43066a.16453.16453,0,0,1,.01953-.207.161.161,0,0,1,.11524-.04785.179.179,0,0,1,.03955.00489l39.16162,9.79a23.99164,23.99164,0,0,1,17.853,19.33886l3.27734,19.66406Zm-47.2085-304A63.99976,63.99976,0,1,1,192,176V96h1.37012a38.61863,38.61863,0,0,0,31.95971-16.95679A43.93638,43.93638,0,0,0,260,96h59.99951ZM248,32h24a48.054,48.054,0,0,1,48,48H260a28.03146,28.03146,0,0,1-28-28V48A16.01833,16.01833,0,0,1,248,32Zm-40,8a8.00917,8.00917,0,0,1,8,8v9.37012A22.65537,22.65537,0,0,1,193.37012,80H192V56A16.01833,16.01833,0,0,1,208,40ZM194.31769,226.88916a79.94849,79.94849,0,0,0,118.25067,5.6792q2.72607-2.72607,5.14917-5.665l85.37427,34.14941a56.17256,56.17256,0,0,1,31.46972,31.89258l24.63819,64.06055a72.01208,72.01208,0,0,1-16.292,76.77246l-29.57226,29.57227-1.99512-11.97071a39.97178,39.97178,0,0,0-18.3833-27.40527l8.27051-16.541a39.73765,39.73765,0,0,0,2.17041-30.53808l-11.80859-35.42578-15.17872,5.06054,11.8086,35.42578a23.84236,23.84236,0,0,1-1.30225,18.32129l-8.98047,17.9607L360,413.75415V320a7.99975,7.99975,0,0,0-2.87842-6.14551l-48-40A7.984,7.984,0,0,0,304,272H208a8.00012,8.00012,0,0,0-5.12158,1.85449l-48,40A7.98564,7.98564,0,0,0,152.01691,320H152v93.75415L134.06335,418.238l-8.98034-17.9607a23.84236,23.84236,0,0,1-1.30225-18.32129l11.8086-35.42578-15.17872-5.06054-11.80859,35.42578a39.73765,39.73765,0,0,0,2.17041,30.53808l8.27057,16.541a39.97185,39.97185,0,0,0-18.38336,27.40527l-1.99512,11.97071L69.09229,433.77832a72.01208,72.01208,0,0,1-16.292-76.77246l24.63819-64.06055a56.17256,56.17256,0,0,1,31.46972-31.89258Z"/><rect x="208" y="120" width="32" height="16"/><path d="M256,184a8.00917,8.00917,0,0,1-8,8h-8v16h8a24.02718,24.02718,0,0,0,24-24V168H256Z"/><circle cx="224" cy="152" r="8"/><rect x="272" y="120" width="32" height="16"/><circle cx="288" cy="152" r="8"/><rect x="184" y="344" width="16" height="16"/><rect x="216" y="344" width="16" height="16"/><rect x="216" y="416" width="16" height="16"/><rect x="280" y="336" width="16" height="24"/><rect x="312" y="336" width="16" height="24"/><rect x="280" y="416" width="16" height="24"/></svg>
