<?xml version="1.0" encoding="utf-8"?>
<!-- Generator: Adobe Illustrator 21.0.0, SVG Export Plug-In . SVG Version: 6.00 Build 0)  -->
<svg version="1.1" xmlns="http://www.w3.org/2000/svg" xmlns:xlink="http://www.w3.org/1999/xlink" x="0px" y="0px"
	 viewBox="0 0 411.3 469" style="enable-background:new 0 0 411.3 469;" xml:space="preserve">
<style type="text/css">
	.st0{display:none;}
	.st1{display:inline;}
	.st2{clip-path:url(#SVGID_2_);}
	.st3{opacity:0.2;fill:url(#SVGID_3_);}
	.st4{opacity:0.2;fill:url(#SVGID_4_);}
	.st5{clip-path:url(#SVGID_2_);fill:#0A132A;}
	.st6{fill:#30BDBB;}
	.st7{fill:#8C909D;}
	.st8{clip-path:url(#SVGID_6_);}
	.st9{fill:#0A132A;}
</style>
<g id="Layer_4" class="st0">
</g>
<g id="Capa_1">
	<g>
		<defs>
			<rect id="SVGID_1_" width="411.3" height="469"/>
		</defs>
		<clipPath id="SVGID_2_">
			<use xlink:href="#SVGID_1_"  style="overflow:visible;"/>
		</clipPath>
		<g class="st2">
			<linearGradient id="SVGID_3_" gradientUnits="userSpaceOnUse" x1="94.331" y1="168.3421" x2="94.331" y2="384.4">
				<stop  offset="0" style="stop-color:#30BDBB"/>
				<stop  offset="1" style="stop-color:#1A223B"/>
			</linearGradient>
			<path class="st3" d="M147.9,316.9c4.5-3.9,9-7.9,13.5-11.8l1-0.9l0.9-1.1c16.7-18.7,32.1-49.2,22.7-86.6
				c-10.3-40.8-49-70.3-91.9-70.3c-19.8,0-39.1,6.2-55.9,18c-15,10.5-27.9,28.7-34.4,48.7c-2.2,6.7-2.6,12.2-3.3,21.3L0,239.3
				l-0.1,1.6l0.2,1.7c0.1,29.3,12.7,52.1,32.9,68.1c5.7,4.3,10.2,8.6,13.2,12.7c10.3,14.4,19.5,30.1,22.2,47.9
				c0.6,3.8,0.9,8.2,0.9,13c0,4.8-0.3,9.2-0.9,13C65.7,415,58,429.7,46.1,445.2c-3,4.2-7.3,7.5-13.1,12.7
				C13.8,474.2-0.5,499.4,0,526.1l-0.2,1.6l0.1,1.6l0.4,5.3c0.7,9.1,1.1,14.5,3.3,21.2c6.5,20,19.4,38.2,34.4,48.7
				c16.8,11.8,36.1,18,55.9,18c43,0,81.7-29.6,92-70.3c7.4-29.2,0.3-62.8-22.7-86.7l-0.9-1l-1-0.9l-5.8-5.1l-7.7-6.7
				c-16.1-17.6-22.7-32.8-25.6-50.3c-3.3-19.5-0.4-32.4-0.4-32.4C125,351.5,134.4,333.4,147.9,316.9z"/>
			<linearGradient id="SVGID_4_" gradientUnits="userSpaceOnUse" x1="316.897" y1="72.3419" x2="316.897" y2="389.4698">
				<stop  offset="0" style="stop-color:#1295D2"/>
				<stop  offset="1" style="stop-color:#1A223B"/>
			</linearGradient>
			<path class="st4" d="M386.7,611.2l-1.1-1c-0.1-0.1-10-8.9-19.5-17.8c-7.4-9.9-37.4-47.7-11.2-109.7c4.8-10.5,7.7-13.4,15.2-21
				c1.1-1.1,2.3-2.3,3.5-3.6c1.8-1.4,3.6-2.9,5.4-4.4c1.6-1.4,3.2-2.7,4.8-3.9l1-0.8l0.9-0.9c19.5-19.8,44.8-71.7,1.1-126.1
				l-1.1-1.3l-1.3-1.1c-9.9-8.1-25.5-23.8-29.4-33.1c-25.7-62.3,3.5-99.8,11.2-110.1c9.5-8.9,19.3-17.7,19.5-17.7l1.1-1l0.9-1.2
				c8.5-10.8,26-33.2,22.9-63.6c-0.1-4.3-0.2-8.6-0.3-12.9l-0.1-1.9l-0.5-1.8c-9.1-35.2-29.9-57.2-67.7-71.4
				C333.7,1.6,324.9,0,315.7,0c-23.5,0-41.6,10.2-43.6,11.4l-0.2,0.1l-0.2,0.1c-20.6,12.9-35.5,30.3-43.3,50.6
				c-0.6,1.5-15.9,41.7,7.2,79.4c5.1,8.3,11.8,14.3,17.7,19.7c2.9,2.6,5.7,5.1,7.7,7.5c19.6,22.3,31.2,45.5,30.2,70.9l0,0.8l0,0.8
				c0,0.3-1.4,34.3-20.4,57.3c-2.7,3.3-6.2,6.4-10,9.7c-4.6,4-9.8,8.6-14.2,14.2c-8.1,10.2-18.6,26.6-22.6,46.9
				c-0.9,4.5-1.3,9.6-1.1,15.1c-0.2,5.4,0.1,10.5,1.1,15.1c4.1,20.3,14.6,36.7,22.6,46.9c4.5,5.6,9.7,10.2,14.3,14.2
				c3.8,3.3,7.3,6.4,10,9.7c18.9,23,20.4,57,20.4,57.3l0,0.8l0,0.8c1,25.3-10.6,48.5-30.2,70.9c-2,2.3-4.7,4.8-7.7,7.4
				c-5.9,5.3-12.6,11.4-17.7,19.7c-23.1,37.6-7.8,77.8-7.2,79.5c7.7,20.1,22.6,37.6,43.2,50.4l0.2,0.1l0.2,0.1
				c2,1.2,20.1,11.4,43.7,11.4c9.1,0,18-1.6,26.2-4.6c37.7-14.1,58.6-36.2,67.7-71.4l0.5-1.8l0.1-1.9c0.1-4.3,0.3-8.6,0.4-12.9
				c3.1-30.4-14.5-52.8-22.9-63.6L386.7,611.2z"/>
		</g>
	</g>
</g>
<g id="Layer_1">
</g>
</svg>
