<?xml version="1.0" encoding="utf-8"?>
<!-- Generator: Adobe Illustrator 21.0.0, SVG Export Plug-In . SVG Version: 6.00 Build 0)  -->
<svg version="1.1" xmlns="http://www.w3.org/2000/svg" xmlns:xlink="http://www.w3.org/1999/xlink" x="0px" y="0px"
	 viewBox="0 0 74.4 63" style="enable-background:new 0 0 74.4 63;" xml:space="preserve">
<style type="text/css">
	.st0{display:none;}
	.st1{display:inline;}
	.st2{clip-path:url(#SVGID_2_);}
	.st3{opacity:0.2;fill:url(#SVGID_3_);}
	.st4{opacity:0.2;fill:url(#SVGID_4_);}
	.st5{clip-path:url(#SVGID_2_);fill:#0A132A;}
	.st6{fill:#30BDBB;}
	.st7{fill:#8C909D;}
	.st8{clip-path:url(#SVGID_6_);}
	.st9{fill:#0A132A;}
</style>
<g id="Layer_4" class="st0">
</g>
<g id="Capa_1">
	<g>
		<defs>
			<rect id="SVGID_1_" x="-410.5" y="218.1" width="411.3" height="469"/>
		</defs>
		<clipPath id="SVGID_2_">
			<use xlink:href="#SVGID_1_"  style="overflow:visible;"/>
		</clipPath>
	</g>
</g>
<g id="Layer_1">
	<g transform="translate(-504.11 -221)">
		<g transform="translate(504.11 164.609)">
			<path class="st6" d="M60.5,62.9l-0.8-5.6c-0.1-0.6-0.6-1-1.2-0.9c0,0,0,0,0,0l-6.1,0.9c-0.6,0.1-1,0.6-0.9,1.2
				c0.1,0.6,0.6,1,1.2,0.9l3.6-0.5c-4.8,5.9-9.9,11-15.3,15c-4.7,3.5-9.6,6.3-14.5,8.2c-8.4,3.3-14.2,3.1-14.2,3.1
				c-0.6,0-1.1,0.4-1.1,1c0,0.6,0.4,1.1,1,1.1c0,0,0.2,0,0.4,0c1.5,0,7-0.2,14.5-3.2c5.1-2,10.2-4.9,15.1-8.5
				c5.6-4.2,10.9-9.4,15.9-15.5l0.4,3c0.1,0.5,0.5,0.9,1,0.9c0.1,0,0.1,0,0.1,0C60.1,64,60.5,63.5,60.5,62.9L60.5,62.9z"/>
			<path class="st7" d="M72.4,113.6h-8.6c0.7-0.5,1.4-1,2-1.6c5-5,5-13.1,0-18.1C65,93,64.1,92.3,63,91.7v-4.3c0-0.6-0.5-1.1-1.1-1
				c-0.6,0-1,0.5-1,1v3.3c-2.9-1-6.1-0.9-8.9,0.3V78c0-0.1,0.1-0.3,0.2-0.3h8.4c0.1,0,0.2,0.1,0.2,0.3v2.6c0,0.6,0.5,1.1,1.1,1
				c0.6,0,1-0.5,1-1V78c0-1.3-1.1-2.4-2.4-2.4h-8.4c-1.3,0-2.4,1.1-2.4,2.4v14.1c-5.9,3.8-7.7,11.7-3.8,17.7
				c0.5,0.8,1.1,1.5,1.7,2.1c0.6,0.6,1.3,1.1,2,1.6H43V87.7c0-1.3-1.1-2.4-2.4-2.4h-8.4c-1.3,0-2.4,1.1-2.4,2.4v25.9h-6.8V96.4
				c0-1.3-1.1-2.4-2.4-2.4h-8.4C11,94,10,95.1,10,96.4v17.2H5.6V59.1c0-1.1-0.9-2-2-2H2c-1.1,0-2,0.9-2,2v7.5c0,0.6,0.5,1.1,1.1,1.1
				c0.6,0,1-0.5,1.1-1.1v-7.4h1.3v54.5c0,1.1,0.9,2,2,2h66.8v1.6H2.1v-44c0-0.6-0.5-1.1-1.1-1.1c-0.6,0-1.1,0.5-1.1,1.1v44.2
				c0,1.1,0.9,2,2,2h70.5c1.1,0,2-0.9,2-2v-1.9C74.4,114.5,73.5,113.6,72.4,113.6z M21,113.6h-8.9V96.4c0-0.1,0.1-0.2,0.2-0.3h8.4
				c0.1,0,0.3,0.1,0.3,0.3V113.6L21,113.6z M32,113.6V87.7c0-0.1,0.1-0.2,0.2-0.3h8.4c0.1,0,0.2,0.1,0.2,0.3v25.9H32L32,113.6z
				 M61.5,112.5c-1.1,0.5-2.2,0.9-3.4,1c0,0,0,0-0.1,0c-0.1,0-0.2,0-0.2,0c-0.1,0-0.2,0-0.4,0c0,0-0.1,0-0.1,0c-0.2,0-0.3,0-0.5,0
				c-0.2,0-0.3,0-0.5,0c0,0-0.1,0-0.1,0c-0.1,0-0.2,0-0.3,0c-0.1,0-0.2,0-0.3,0c-0.1,0-0.1,0-0.2,0c-0.1,0-0.2,0-0.3,0c0,0,0,0,0,0
				c-1.3-0.2-2.5-0.6-3.6-1.3c0,0,0,0,0,0c-0.8-0.5-1.5-1-2.2-1.7c-4.2-4.2-4.2-10.9,0-15.1c0.8-0.8,1.6-1.4,2.5-1.9
				c0,0,0.1,0,0.1,0c2.8-1.4,6-1.6,8.9-0.4c0,0,0,0,0.1,0c0.1,0.1,0.3,0.1,0.4,0.2c0.1,0,0.1,0,0.2,0.1c5.3,2.5,7.6,8.9,5,14.2
				C65.4,109.7,63.7,111.4,61.5,112.5C61.5,112.5,61.5,112.5,61.5,112.5L61.5,112.5z"/>
			<path class="st6" d="M57.3,101.9v-3.8c1.3,0.1,1.8,0.7,2.2,0.7c0.6,0,0.8-0.7,0.8-1.1c0-0.9-1.8-1.3-3.1-1.3v-0.5
				c0-0.2-0.3-0.4-0.6-0.4c-0.3,0-0.5,0.2-0.5,0.4v0.5c-1.8,0.2-3.5,1.1-3.5,3.5c0,2.4,1.9,3.1,3.5,3.6v4.4c-1.9-0.1-2.4-1.5-3-1.5
				c-0.5,0-0.9,0.6-0.9,1.1c0,0.9,1.6,2.2,3.9,2.2l0,0v0.6c0,0.2,0.2,0.4,0.5,0.4c0.3,0,0.6-0.2,0.6-0.4v-0.6c2-0.3,3.4-1.5,3.4-3.8
				C60.7,103.3,58.9,102.5,57.3,101.9z M56.3,101.5c-1-0.4-1.8-0.8-1.8-1.8c0-1,0.7-1.4,1.8-1.6V101.5z M57.2,107.9V104
				c0.9,0.4,1.6,0.9,1.6,2.1C58.8,107.1,58.2,107.7,57.2,107.9L57.2,107.9z"/>
		</g>
	</g>
</g>
</svg>
