<svg id="Layer_1" data-name="Layer 1" xmlns="http://www.w3.org/2000/svg" viewBox="0 0 376.2 490.1"><defs><style>.cls-1{fill:#8C909D;}.cls-2{fill:#3c92ca;}</style></defs><title>individual</title><path class="cls-1" d="M195.75,247.3V176.6a9.93,9.93,0,0,0-4.4-8.2,23,23,0,0,1-10.3-19.2V75.9a56.21,56.21,0,0,1,56.1-56.1H253a56.21,56.21,0,0,1,56.1,56.1v73.3a23.19,23.19,0,0,1-10.3,19.2,9.68,9.68,0,0,0-4.4,8.2v70.7a13.2,13.2,0,0,0,7.4,11.8c9.3,4.5,57.7,29,102.3,65.7a25.65,25.65,0,0,1,9.3,19.8v50.2a9.9,9.9,0,0,0,19.8,0V344.6a45.15,45.15,0,0,0-16.5-35.1c-42-34.5-87.2-58.6-102.5-66.3V181.5a42.79,42.79,0,0,0,14.7-32.4V75.9A75.92,75.92,0,0,0,253,0h-15.8a75.92,75.92,0,0,0-75.9,75.9v73.3A43,43,0,0,0,176,181.6v61.7c-15.2,7.7-60.5,31.8-102.5,66.3A45.15,45.15,0,0,0,57,344.7v50.2a9.9,9.9,0,0,0,19.8,0V344.7a25.65,25.65,0,0,1,9.3-19.8c44.6-36.7,93.1-61.1,102.3-65.7A13.46,13.46,0,0,0,195.75,247.3Z" transform="translate(-56.95)"/><path class="cls-2" d="M269.25,257.7a9.86,9.86,0,0,0-9.9,9.9,14.25,14.25,0,0,1-4.6,10.5,7.46,7.46,0,0,0-1.7,1.4,14.84,14.84,0,0,1-8,2.5,14.4,14.4,0,0,1-14.4-14.4,9.9,9.9,0,1,0-19.8,0,33.66,33.66,0,0,0,7.6,21.4l-7.3,169.7a10.15,10.15,0,0,0,3.3,7.8l23.3,21a10,10,0,0,0,6.6,2.6,9.65,9.65,0,0,0,6.6-2.6l23.6-21.3a10,10,0,0,0,3.3-7.8l-7.6-167.7a34,34,0,0,0,9-23A10.09,10.09,0,0,0,269.25,257.7Zm-25.1,209.1L231,454.9l6.6-153.9a35.49,35.49,0,0,0,7.3.8,36.79,36.79,0,0,0,5.8-.5l6.9,153.3Z" transform="translate(-56.95)"/></svg>