<svg xmlns="http://www.w3.org/2000/svg" width="477.898" height="512.001" viewBox="0 0 477.898 512.001">
  <g id="exam" transform="">
    <g id="Group_2" data-name="Group 2">
      <g id="Group_1" data-name="Group 1" style=" fill: #8C909D;">
        <path id="Path_1" data-name="Path 1" d="M375.451,315.733a8.536,8.536,0,0,0-8.533-8.533h-51.2a8.533,8.533,0,1,0,0,17.066h51.2A8.535,8.535,0,0,0,375.451,315.733Z"/>
        <path id="Path_2" data-name="Path 2" d="M341.317,93.867V51.2a8.533,8.533,0,1,0-17.066,0V93.867a42.716,42.716,0,0,0,42.667,42.667h76.8V298.667a8.533,8.533,0,0,0,17.066,0V128a8.536,8.536,0,0,0-8.533-8.533H366.918A25.632,25.632,0,0,1,341.317,93.867Z"/>
        <path id="Path_3" data-name="Path 3" d="M366.917,204.8H298.65a8.533,8.533,0,0,0,0,17.066h68.267a8.533,8.533,0,0,0,0-17.066Z"/>
        <path id="Path_4" data-name="Path 4" d="M273.051,213.333a8.536,8.536,0,0,0-8.533-8.533h-51.2a8.533,8.533,0,1,0,0,17.066h51.2A8.535,8.535,0,0,0,273.051,213.333Z"/>
        <path id="Path_5" data-name="Path 5" d="M213.317,256a8.533,8.533,0,1,0,0,17.066h17.067a8.533,8.533,0,1,0,0-17.066H213.317Z"/>
        <path id="Path_6" data-name="Path 6" d="M213.317,170.667H298.65a8.533,8.533,0,0,0,0-17.066H213.317a8.533,8.533,0,1,0,0,17.066Z"/>
        <path id="Path_7" data-name="Path 7" d="M264.517,273.067H349.85a8.533,8.533,0,0,0,0-17.066H264.517a8.533,8.533,0,1,0,0,17.066Z"/>
        <path id="Path_8" data-name="Path 8" d="M315.717,358.4a8.533,8.533,0,1,0,0,17.066h17.067a8.533,8.533,0,0,0,0-17.066Z"/>
        <path id="Path_9" data-name="Path 9" d="M281.584,307.2H213.317a8.533,8.533,0,1,0,0,17.066h68.267a8.533,8.533,0,1,0,0-17.066Z"/>
        <path id="Path_10" data-name="Path 10" d="M281.584,358.4H213.317a8.533,8.533,0,1,0,0,17.066h68.267a8.533,8.533,0,1,0,0-17.066Z"/>
        <path id="Path_11" data-name="Path 11" d="M484.754,351.5,467.687,334.43c-13.116-13.116-33.1-13.09-46.2,0l-111.8,111.8a8.546,8.546,0,0,0-2.5,6.033v51.2A8.536,8.536,0,0,0,315.717,512h51.2a8.546,8.546,0,0,0,6.033-2.5l111.8-111.8C498.348,384.1,498.348,365.1,484.754,351.5Zm-74.3,18.1,13.534,13.534L349.85,457.268l-13.534-13.534Zm-86.2,125.337V455.8l39.134,39.134Zm51.2-12.066-13.534-13.534L436.055,395.2l13.534,13.534Zm97.237-97.237-11.034,11.034L422.52,357.53,433.554,346.5c6.741-6.733,15.292-6.767,22.067,0l17.067,17.067C479.591,370.475,479.591,378.726,472.688,385.63Z" fill="#00bd9a"/>
        <path id="Path_12" data-name="Path 12" d="M281.584,494.933H59.717a25.631,25.631,0,0,1-25.6-25.6V42.667a25.631,25.631,0,0,1,25.6-25.6H329.251L412.084,99.9A8.532,8.532,0,1,0,424.15,87.834L338.817,2.5A8.513,8.513,0,0,0,332.784,0H59.717A42.715,42.715,0,0,0,17.051,42.667V469.334A42.716,42.716,0,0,0,59.718,512H281.585a8.534,8.534,0,0,0,0-17.068Z"/>
        <path id="Path_13" data-name="Path 13" d="M281.584,409.6H213.317a8.533,8.533,0,1,0,0,17.066h68.267a8.533,8.533,0,1,0,0-17.066Z"/>
        <path id="Path_14" data-name="Path 14" d="M170.651,162.133a8.536,8.536,0,0,0-8.533-8.533h-51.2a8.536,8.536,0,0,0-8.533,8.533v51.2a8.536,8.536,0,0,0,8.533,8.533h51.2a8.536,8.536,0,0,0,8.533-8.533ZM153.584,204.8H119.451V170.667h34.133Z" fill="#00bd9a"/>
        <path id="Path_15" data-name="Path 15" d="M110.917,426.667h51.2a8.536,8.536,0,0,0,8.533-8.533v-51.2a8.536,8.536,0,0,0-8.533-8.533h-51.2a8.536,8.536,0,0,0-8.533,8.533v51.2A8.536,8.536,0,0,0,110.917,426.667Zm8.534-51.2h34.133V409.6H119.451V375.467Z" fill="#00bd9a"/>
        <path id="Path_16" data-name="Path 16" d="M121.951,321.766a8.54,8.54,0,0,0,6.033,2.5,6.912,6.912,0,0,0,.845-.043,8.513,8.513,0,0,0,6.255-3.755l34.133-51.2a8.535,8.535,0,1,0-14.2-9.472l-28.356,42.539-9.711-9.7A8.532,8.532,0,1,0,104.884,304.7Z"/>
      </g>
    </g>
  </g>
</svg>
