<svg xmlns="http://www.w3.org/2000/svg" width="398.926" height="512.001" viewBox="0 0 398.926 512.001"><defs><style>.a{fill:#00bd9a;}.b{fill:#2c2f33;}</style></defs><g transform="translate(-0.5 0.001)"><path class="a" d="M265.656,124.641a7.5,7.5,0,0,0,10.605,0l27.25-27.246A7.5,7.5,0,0,0,292.9,86.785l-21.941,21.945L261.7,99.465a7.5,7.5,0,1,0-10.609,10.605Zm0,0"/><path class="a" d="M322.414,414.254H69.012a7.5,7.5,0,0,0,0,15h253.4a7.5,7.5,0,0,0,0-15Zm0,0"/><path class="a" d="M322.414,451.613H69.012a7.5,7.5,0,0,0,0,15h253.4a7.5,7.5,0,0,0,0-15Zm0,0"/><path class="a" d="M322.414,376.9H69.012a7.5,7.5,0,0,0,0,15h253.4a7.5,7.5,0,0,0,0-15Zm0,0"/><path class="b" d="M391.926,246a7.5,7.5,0,0,0,7.5-7.5V23.437A23.464,23.464,0,0,0,375.988,0H217.465a7.5,7.5,0,1,0,0,15H375.988a8.446,8.446,0,0,1,8.434,8.438V238.5A7.5,7.5,0,0,0,391.926,246Zm0,0"/><path class="b" d="M399.426,273.5a7.5,7.5,0,0,0-15,0v60.1h-61.1v-38.52c0-33.621-28.844-45.867-30.07-46.371l-.145-.059-63.945-24.766V210.973A53.185,53.185,0,0,0,248.27,178.2,25.311,25.311,0,0,0,269.489,160,56.129,56.129,0,1,0,237.883,62.77a69.658,69.658,0,0,0-112.438,55v19.988a23.856,23.856,0,0,0-5.629,15.367A25.281,25.281,0,0,0,142.028,178.2,53.816,53.816,0,0,0,162.2,211.832v12.059L98.321,248.653c-.051.02-.1.039-.145.059-1.227.5-30.07,12.746-30.07,46.371V333.6H15.5V76.329H53.391A23.464,23.464,0,0,0,76.828,52.887V15H182.465a7.5,7.5,0,1,0,0-15H72.988a16.248,16.248,0,0,0-8.07,2.141.249.249,0,0,1-.055.031c-.391.227-.777.465-1.148.723-.121.082-.23.172-.348.258-.273.2-.551.4-.812.617-.387.32-.762.656-1.117,1.012L5.285,60.934c-.035.035-.066.078-.1.113-.316.324-.625.656-.91,1-.23.277-.441.57-.652.859-.074.1-.152.2-.223.3-.266.379-.5.773-.734,1.168a.343.343,0,0,1-.023.039A16.259,16.259,0,0,0,.5,72.485V488.563A23.464,23.464,0,0,0,23.938,512H375.985a23.467,23.467,0,0,0,23.441-23.437V273.5Zm-91.1,21.582V333.6h-28.27V305.043a7.5,7.5,0,1,0-15,0V333.6H220.867l-7.547-44.609L216.1,284.8c7.039,5,14.738,1.977,17.66-3.875L250.145,248.1l37.445,14.5c1.066.461,20.734,9.32,20.734,32.477ZM169.277,270.676,155.3,242.66,167.316,238l17.516,21.621c-9.172,6.516-13.914,9.883-15.555,11.051Zm66.816-28.016-13.98,28.016c-4.008-2.848-.449-.324-15.574-11.066L224.051,238Zm-40.4,27.652,8.172,5.8-2.461,3.7H189.988l-2.461-3.7Zm-3.395,24.5h6.789l6.563,38.785H185.738Zm62.617-138.453a10.237,10.237,0,0,1-5.941,6.273v-9.059C250.766,154.547,253.488,155.793,254.918,156.363ZM275.691,63.09a41.13,41.13,0,1,1-41.133,41.129A41.174,41.174,0,0,1,275.691,63.09ZM140.445,117.774a54.673,54.673,0,0,1,87.785-43.516,56.406,56.406,0,0,0-8.645,28.188,12.314,12.314,0,0,0-3.352,1.512c-18.648,12.18-41.383,18.309-62.34,16.8a11.746,11.746,0,0,0-11.828,7.508c-.066.008-1.582.309-1.621.316Zm-5.629,35.355c0-4.027,2.848-7.371,6.469-9.055v18.563A10.21,10.21,0,0,1,134.817,153.129Zm21.469,16.477v-33.7h.1c22.746.832,46.059-5.91,65-17.465a56.967,56.967,0,0,0,12.582,23.328v27.84a38.263,38.263,0,0,1-38.184,38.18c-24.246,0-39.5-18.949-39.5-38.184Zm39.5,53.184a53.633,53.633,0,0,0,18.371-3.27v6.852L195.7,249.164l-18.5-22.836v-6.516a58.9,58.9,0,0,0,18.594,2.977ZM83.105,295.082c0-23.109,19.465-31.93,20.734-32.48l37.41-14.5,16.379,32.832c2.871,5.746,10.523,8.941,17.66,3.875l2.785,4.188L170.523,333.6H126.375V305.043a7.5,7.5,0,0,0-15,0V333.6H83.1v-38.52ZM53.39,61.324H26.109L61.828,25.609V52.887A8.45,8.45,0,0,1,53.39,61.324ZM23.937,497a8.447,8.447,0,0,1-8.438-8.437V348.6H384.422V488.563A8.447,8.447,0,0,1,375.984,497Zm0,0"/></g></svg>