<?xml version="1.0" encoding="utf-8"?>
<!-- Generator: Adobe Illustrator 21.0.0, SVG Export Plug-In . SVG Version: 6.00 Build 0)  -->
<svg version="1.1" xmlns="http://www.w3.org/2000/svg" xmlns:xlink="http://www.w3.org/1999/xlink" x="0px" y="0px"
	 viewBox="0 0 65.1 64.2" style="enable-background:new 0 0 65.1 64.2;" xml:space="preserve">
<style type="text/css">
	.st0{display:none;}
	.st1{display:inline;}
	.st2{clip-path:url(#SVGID_2_);}
	.st3{opacity:0.2;fill:url(#SVGID_3_);}
	.st4{opacity:0.2;fill:url(#SVGID_4_);}
	.st5{clip-path:url(#SVGID_2_);fill:#0A132A;}
	.st6{fill:#30BDBB;}
	.st7{fill:#8C909D;}
	.st8{clip-path:url(#SVGID_6_);}
	.st9{fill:#0A132A;}
</style>
<g id="Layer_4" class="st0">
</g>
<g id="Capa_1">
	<g>
		<defs>
			<rect id="SVGID_1_" x="-140.6" y="217.3" width="411.3" height="469"/>
		</defs>
		<clipPath id="SVGID_2_">
			<use xlink:href="#SVGID_1_"  style="overflow:visible;"/>
		</clipPath>
	</g>
</g>
<g id="Layer_1">
	<g transform="translate(0 -0.5)">
		<path class="st7" d="M56.7,32.6h-2.1c0,12.2-9.9,22-22,22c-12.2,0-22-9.9-22-22c0-11.2,8.4-20.5,19.3-21.9L27.6,13l1.5,1.5L34,9.5
			l-4.9-4.9l-1.5,1.5l2.5,2.5C17.9,9.8,8.4,20.1,8.4,32.6c0,13.3,10.8,24.1,24.1,24.1C45.8,56.8,56.7,45.9,56.7,32.6z"/>
		<path class="st7" d="M25.2,0.9l2.1-0.4l0.4,2.1L25.6,3L25.2,0.9z"/>
		<path class="st7" d="M19.1,3l1.9-0.8l0.8,1.9l-1.9,0.8L19.1,3z"/>
		<path class="st7" d="M13.6,6.1L15.3,5l1.2,1.7l-1.7,1.2L13.6,6.1z"/>
		<path class="st7" d="M8.8,10.4l1.5-1.5l1.5,1.5l-1.5,1.5L8.8,10.4z"/>
		<path class="st6" d="M29.4,19v1.1c-3.6,0.5-6.3,3.6-6.3,7.3v1c0,4.1,3.3,7.3,7.3,7.3h4.2c0.6,0,1,0.5,1,1v1c0,0.6-0.5,1-1,1h-4.2
			c-0.6,0-1-0.5-1-1v-1h-6.3v1c0,3.7,2.7,6.7,6.3,7.3v1.1c0,1.7,1.4,3.1,3.1,3.1c1.7,0,3.1-1.4,3.1-3.1v-1.1
			c3.6-0.5,6.3-3.6,6.3-7.3v-1c0-4.1-3.3-7.3-7.3-7.3h-4.2c-0.6,0-1-0.5-1-1.1v-1c0-0.6,0.5-1,1-1h4.2c0.6,0,1,0.5,1,1v1H42v-1
			c0-3.7-2.7-6.7-6.3-7.3V19c0-1.7-1.4-3.1-3.1-3.1C30.8,15.8,29.4,17.2,29.4,19z M33.6,19v3.1h1c2.5,0,4.6,1.8,5.1,4.2h-2.2
			c-0.4-1.3-1.6-2.1-3-2.1h-4.2c-1.7,0-3.1,1.4-3.1,3.1v1c0,1.7,1.4,3.1,3.1,3.1h4.2c2.9,0,5.2,2.4,5.2,5.2v1c0,2.9-2.3,5.2-5.2,5.2
			h-1v3.1c0,0.6-0.5,1-1,1c-0.6,0-1-0.5-1-1v-3.1h-1.1c-2.5,0-4.6-1.8-5.1-4.2h2.2c0.4,1.3,1.6,2.1,3,2.1h4.2c1.7,0,3.1-1.4,3.1-3.1
			v-1c0-1.7-1.4-3.1-3.1-3.1h-4.2c-2.9,0-5.2-2.4-5.2-5.2v-1c0-2.9,2.4-5.2,5.2-5.2h1.1V19c0-0.6,0.5-1,1-1
			C33.1,17.9,33.6,18.4,33.6,19z"/>
		<path class="st7" d="M9,13.3L7.4,12C-2.8,24.4-2.4,42.4,8.3,54.3l1.6-1.4C-0.1,41.7-0.5,24.9,9,13.3L9,13.3z"/>
		<path class="st7" d="M37.4,62.7l2.1-0.4l0.4,2.1l-2.1,0.4L37.4,62.7z"/>
		<path class="st7" d="M43.2,61.1l1.9-0.8l0.8,1.9L44,63.1L43.2,61.1z"/>
		<path class="st7" d="M48.6,58.5l1.7-1.2l1.2,1.7l-1.7,1.2L48.6,58.5z"/>
		<path class="st7" d="M53.3,54.9l1.5-1.5l1.5,1.5l-1.5,1.5L53.3,54.9z"/>
		<path class="st7" d="M56.8,10.9l-1.6,1.4c10,11.2,10.4,28,0.9,39.6l1.6,1.3C67.9,40.8,67.5,22.9,56.8,10.9L56.8,10.9z"/>
	</g>
</g>
</svg>
