<?xml version="1.0" encoding="utf-8"?>
<!-- Generator: Adobe Illustrator 21.0.0, SVG Export Plug-In . SVG Version: 6.00 Build 0)  -->
<svg version="1.1" xmlns="http://www.w3.org/2000/svg" xmlns:xlink="http://www.w3.org/1999/xlink" x="0px" y="0px"
	 viewBox="0 0 76.9 64.7" style="enable-background:new 0 0 76.9 64.7;" xml:space="preserve">
<style type="text/css">
	.st0{display:none;}
	.st1{display:inline;}
	.st2{clip-path:url(#SVGID_2_);}
	.st3{opacity:0.2;fill:url(#SVGID_3_);}
	.st4{opacity:0.2;fill:url(#SVGID_4_);}
	.st5{clip-path:url(#SVGID_2_);fill:#0A132A;}
	.st6{fill:#30BDBB;}
	.st7{fill:#8C909D;}
	.st8{clip-path:url(#SVGID_6_);}
	.st9{fill:#0A132A;}
</style>
<g id="Layer_4" class="st0">
</g>
<g id="Capa_1">
	<g>
		<defs>
			<rect id="SVGID_1_" x="-408.3" y="410.2" width="411.3" height="469"/>
		</defs>
		<clipPath id="SVGID_2_">
			<use xlink:href="#SVGID_1_"  style="overflow:visible;"/>
		</clipPath>
	</g>
</g>
<g id="Layer_1">
	<g transform="translate(0 -0.309)">
		<path class="st7" d="M75.6,24.2H71V8.5c0-0.7-0.5-1.3-1.2-1.3H39.1l-6.8-6.6c-0.2-0.2-0.5-0.3-0.9-0.3H6.9C6.5,0.3,6.2,0.5,6,0.7
			C5.7,0.9,5.6,1.3,5.6,1.6l0.9,22.6H1.3c-0.7,0-1.3,0.6-1.3,1.3c0,0.1,0,0.1,0,0.2L6.8,64c0.1,0.6,0.6,1,1.2,1h60.8
			c0.6,0,1.1-0.4,1.2-1l6.7-38.3c0.1-0.4,0-0.8-0.3-1C76.3,24.4,76,24.2,75.6,24.2L75.6,24.2z M8.2,2.8h22.7l6.8,6.6
			c0.2,0.2,0.5,0.3,0.9,0.3h29.9v14.5h-3.6v-9.3c0-0.7-0.6-1.3-1.3-1.3H13.3c-0.7,0-1.3,0.6-1.3,1.3v9.3H9L8.2,2.8z M62.4,24.2H14.5
			v-8.1h47.8V24.2z M67.8,62.5H9.1L2.7,26.7h71.4L67.8,62.5z"/>
		<path class="st6" d="M25.6,44.2h-2.2c-4.2,0-7.7,3.5-7.7,7.7v5.7c0,0.7,0.6,1.3,1.3,1.3h15c0.7,0,1.3-0.6,1.3-1.3V52
			C33.3,47.8,29.8,44.2,25.6,44.2L25.6,44.2z M30.8,56.4H18.3V52c0-2.8,2.3-5.2,5.2-5.2h2.2c2.8,0,5.2,2.4,5.2,5.2V56.4z"/>
		<path class="st6" d="M24.5,43.9c3.1,0,5.6-2.5,5.6-5.6c0-3.1-2.5-5.6-5.6-5.6c-3.1,0-5.6,2.5-5.6,5.6
			C18.9,41.4,21.4,43.9,24.5,43.9L24.5,43.9z M24.5,35.2c1.7,0,3.1,1.4,3.1,3.1c0,1.7-1.4,3.1-3.1,3.1c-1.7,0-3.1-1.4-3.1-3.1
			C21.4,36.6,22.8,35.2,24.5,35.2z"/>
		<g>
			<path class="st7" d="M63.1,42.7H38.4c-0.6,0-1.2-0.5-1.2-1.2c0-0.6,0.5-1.2,1.2-1.2h24.7c0.6,0,1.2,0.5,1.2,1.2
				C64.3,42.2,63.7,42.7,63.1,42.7z"/>
		</g>
		<g>
			<path class="st7" d="M55.1,48.9H38.4c-0.6,0-1.2-0.5-1.2-1.2c0-0.6,0.5-1.2,1.2-1.2h16.7c0.6,0,1.2,0.5,1.2,1.2
				C56.3,48.4,55.8,48.9,55.1,48.9z"/>
		</g>
		<g>
			<path class="st7" d="M44.5,55.2h-6.1c-0.6,0-1.2-0.5-1.2-1.2c0-0.6,0.5-1.2,1.2-1.2h6.1c0.6,0,1.2,0.5,1.2,1.2
				C45.7,54.7,45.1,55.2,44.5,55.2z"/>
		</g>
		<g>
			<path class="st7" d="M63.1,48.9h-4.4c-0.6,0-1.2-0.5-1.2-1.2c0-0.6,0.5-1.2,1.2-1.2h4.4c0.6,0,1.2,0.5,1.2,1.2
				C64.3,48.4,63.7,48.9,63.1,48.9z"/>
		</g>
		<g>
			<path class="st7" d="M63.1,55.2H49.8c-0.6,0-1.2-0.5-1.2-1.2c0-0.6,0.5-1.2,1.2-1.2h13.3c0.6,0,1.2,0.5,1.2,1.2
				C64.3,54.7,63.7,55.2,63.1,55.2z"/>
		</g>
	</g>
</g>
</svg>
