<?xml version="1.0" encoding="utf-8"?>
<!-- Generator: Adobe Illustrator 21.0.0, SVG Export Plug-In . SVG Version: 6.00 Build 0)  -->
<svg version="1.1" xmlns="http://www.w3.org/2000/svg" xmlns:xlink="http://www.w3.org/1999/xlink" x="0px" y="0px"
	 viewBox="0 0 73.6 68.9" style="enable-background:new 0 0 73.6 68.9;" xml:space="preserve">
<style type="text/css">
	.st0{display:none;}
	.st1{display:inline;}
	.st2{clip-path:url(#SVGID_2_);}
	.st3{opacity:0.2;fill:url(#SVGID_3_);}
	.st4{opacity:0.2;fill:url(#SVGID_4_);}
	.st5{clip-path:url(#SVGID_2_);fill:#0A132A;}
	.st6{fill:#30BDBB;}
	.st7{fill:#8C909D;}
	.st8{clip-path:url(#SVGID_6_);}
	.st9{fill:#0A132A;}
</style>
<g id="Layer_4" class="st0">
</g>
<g id="Capa_1">
</g>
<g id="Layer_1">
	<g>
		<g>
			<path class="st7" d="M0,28.4v29.6c0,2.2,1.8,4,4,4h9.1c1.3,0,2.4-0.6,3.1-1.5c1.7,2,4.2,3.3,6.9,3.3h18.1c0.8,0,1.5-0.7,1.5-1.5
				c0-0.8-0.7-1.5-1.5-1.5H23.1c-3.4,0-6.1-2.7-6.1-6.1V29.3c3.5-1.3,14.2-5.9,14.2-15.8V3.1c1.4-0.2,4-0.4,5.8,0.9
				c1.7,1.2,2.5,3.5,2.5,6.8v12c0,0.8,0.7,1.5,1.5,1.5h16c3.4,0,6.1,2.7,6.1,6.1v0.2L62.9,32c-0.1,0.8,0.4,1.6,1.2,1.7
				c0.1,0,0.2,0,0.2,0c0.7,0,1.3-0.5,1.5-1.2l0.2-1.5c0-0.1,0-0.1,0-0.2v-0.3c0-5-4.1-9.1-9.1-9.1H42.6V10.9c0-4.3-1.3-7.4-3.7-9.2
				c-3.9-2.9-9.3-1.2-9.5-1.1c-0.6,0.2-1,0.8-1,1.4v11.6c0,7.5-8.5,11.5-11.8,12.8c-0.7-1.1-1.9-1.9-3.4-1.9H4
				C1.8,24.5,0,26.3,0,28.4z M14.1,28.4v29.6c0,0.5-0.5,1-1,1H4c-0.5,0-1-0.5-1-1V28.4c0-0.5,0.5-1,1-1h9.1
				C13.6,27.4,14.1,27.9,14.1,28.4z"/>
			<path class="st6" d="M60.1,37c-5,0-9,4.1-9,9v4.5h-2.9c-0.8,0-1.5,0.7-1.5,1.5v15.4c0,0.8,0.7,1.5,1.5,1.5h23.9
				c0.8,0,1.5-0.7,1.5-1.5V52c0-0.8-0.7-1.5-1.5-1.5h-2.9V46C69.2,41.1,65.1,37,60.1,37z M54.1,46c0-3.4,2.7-6.1,6.1-6.1
				c3.3,0,6.1,2.7,6.1,6.1v4.5H54.1V46L54.1,46z M70.6,53.5v12.5H49.7V53.5H70.6z"/>
		</g>
	</g>
</g>
</svg>
