<svg xmlns="http://www.w3.org/2000/svg" width="478.856" height="462.891" viewBox="0 0 478.856 462.891"><defs><style>.a{fill:#2c2f33;}.b{fill:#00bd9a;}</style></defs><g transform="translate(0 -7.982)"><path class="a" d="M406.872,160.017H6.856A6.848,6.848,0,0,0,0,166.857V358.873a6.848,6.848,0,0,0,6.84,6.856H278.856a6.856,6.856,0,0,0,0-13.712H13.712V173.729H400v17.144a6.848,6.848,0,0,0,6.84,6.856h.016a6.848,6.848,0,0,0,6.856-6.84V166.873A6.849,6.849,0,0,0,406.872,160.017Z"/><path class="a" d="M360.36,128.185l-320-72a6.855,6.855,0,0,0-8.2,5.2l-16,72a6.859,6.859,0,1,0,13.392,2.976l14.5-65.288,313.3,70.488a6.467,6.467,0,0,0,1.512.168,6.856,6.856,0,0,0,1.5-13.544Z"/><path class="a" d="M321.5,88.513l-192-80a6.88,6.88,0,0,0-8.8,3.272l-16,32a6.88,6.88,0,1,0,12.1,6.544c.071-.131.138-.265.2-.4v.016l13.128-26.272L316.208,101.2a6.874,6.874,0,1,0,5.3-12.687Z"/><path class="a" d="M326.352,192.017h-63.5a6.856,6.856,0,0,0,0,13.712h63.5a6.856,6.856,0,0,0,0-13.712Z"/><path class="a" d="M198.856,192.473a70.4,70.4,0,1,0,70.4,70.4A70.4,70.4,0,0,0,198.856,192.473Zm0,128a57.6,57.6,0,1,1,57.6-57.6A57.6,57.6,0,0,1,198.856,320.473Z"/><path class="b" d="M390.856,214.873c-42.4,0-88,10.016-88,32v192c0,21.984,45.6,32,88,32s88-10.016,88-32v-192C478.856,224.889,433.256,214.873,390.856,214.873Zm72,223.88c-1.208,4.44-25.2,16.12-72,16.12s-70.792-11.68-72-16V426.3c17.024,8.576,45.144,12.576,72,12.576s54.984-4.04,72-12.584Zm0-32c-1.208,4.44-25.2,16.12-72,16.12s-70.792-11.68-72-16V394.3c17.024,8.576,45.144,12.576,72,12.576s54.984-4.04,72-12.584Zm0-32c-1.208,4.44-25.2,16.12-72,16.12s-70.792-11.68-72-16V362.3c17.024,8.576,45.144,12.576,72,12.576s54.984-4.04,72-12.584Zm0-32c-1.208,4.44-25.2,16.12-72,16.12s-70.792-11.68-72-16V330.3c17.024,8.576,45.144,12.576,72,12.576s54.984-4.04,72-12.584Zm0-32c-1.208,4.44-25.2,16.12-72,16.12s-70.792-11.68-72-16V298.3c17.024,8.536,45.144,12.576,72,12.576s54.984-4.04,72-12.584Zm0-32c-1.208,4.44-25.2,16.12-72,16.12s-70.792-11.68-72-16V266.3c17.024,8.536,45.144,12.576,72,12.576s54.984-4.04,72-12.584Zm-72-15.88c-46.728,0-70.712-11.648-72-15.856v-.048c1.288-4.456,25.272-16.1,72-16.1,46.4,0,70.4,11.472,72,16C461.256,251.4,437.256,262.873,390.856,262.873Z"/><path class="a" d="M134.856,320.009H74.384l-28.672-31.36v-52l31.664-30.92h57.48a6.856,6.856,0,1,0,0-13.712H74.592a6.863,6.863,0,0,0-4.8,1.944L34.056,228.817a8.594,8.594,0,0,0-2.064,5.6v56.9a6.861,6.861,0,0,0,1.792,4.624l32.5,35.552a6.855,6.855,0,0,0,5.064,2.232h63.5a6.856,6.856,0,1,0,0-13.712Z"/><path class="b" d="M202.856,254.873h-8c-2.488,0-4-1.392-4-2s1.512-2,4-2h20a8,8,0,0,0,0-16h-8a8,8,0,0,0-16,0v.36a18.624,18.624,0,0,0-16,17.6,19.1,19.1,0,0,0,20,18.04h8c2.488,0,4,1.392,4,2s-1.512,2-4,2h-20a8,8,0,0,0,0,16h8a8,8,0,0,0,16,0v-.36a18.624,18.624,0,0,0,16-17.6A19.1,19.1,0,0,0,202.856,254.873Z"/></g></svg>