<?xml version="1.0" encoding="utf-8"?>
<!-- Generator: Adobe Illustrator 21.0.0, SVG Export Plug-In . SVG Version: 6.00 Build 0)  -->
<svg version="1.1" xmlns="http://www.w3.org/2000/svg" xmlns:xlink="http://www.w3.org/1999/xlink" x="0px" y="0px"
	 viewBox="0 0 83.4 73.4" style="enable-background:new 0 0 83.4 73.4;" xml:space="preserve">
<style type="text/css">
	.st0{display:none;}
	.st1{display:inline;}
	.st2{clip-path:url(#SVGID_2_);}
	.st3{opacity:0.2;fill:url(#SVGID_3_);}
	.st4{opacity:0.2;fill:url(#SVGID_4_);}
	.st5{clip-path:url(#SVGID_2_);fill:#0A132A;}
	.st6{fill:#30BDBB;}
	.st7{fill:#8C909D;}
	.st8{clip-path:url(#SVGID_6_);}
	.st9{fill:#0A132A;}
</style>
<g id="Layer_4" class="st0">
</g>
<g id="Capa_1">
	<g>
		<defs>
			<rect id="SVGID_1_" x="140.3" y="224" width="411.3" height="469"/>
		</defs>
		<clipPath id="SVGID_2_">
			<use xlink:href="#SVGID_1_"  style="overflow:visible;"/>
		</clipPath>
	</g>
</g>
<g id="Layer_1">
	<g>
		<g>
			<g>
				<g>
					<path class="st6" d="M7.8,69H10c0.6,0,1.1-0.5,1.1-1.1c0-0.6-0.5-1.1-1.1-1.1H7.8c-0.6,0-1.1,0.5-1.1,1.1
						C6.6,68.5,7.1,69,7.8,69z"/>
					<path class="st6" d="M21,69h2.2c0.6,0,1.1-0.5,1.1-1.1c0-0.6-0.5-1.1-1.1-1.1H21c-0.6,0-1.1,0.5-1.1,1.1
						C19.9,68.5,20.4,69,21,69z"/>
					<path class="st6" d="M21,29.1h2.2c0.6,0,1.1-0.5,1.1-1.1c0-0.6-0.5-1.1-1.1-1.1H21c-0.6,0-1.1,0.5-1.1,1.1
						C19.9,28.6,20.4,29.1,21,29.1z"/>
					<path class="st6" d="M27.7,69h2.2c0.6,0,1.1-0.5,1.1-1.1c0-0.6-0.5-1.1-1.1-1.1h-2.2c-0.6,0-1.1,0.5-1.1,1.1
						C26.6,68.5,27.1,69,27.7,69z"/>
					<path class="st6" d="M14.4,29.1h2.2c0.6,0,1.1-0.5,1.1-1.1c0-0.6-0.5-1.1-1.1-1.1h-2.2c-0.6,0-1.1,0.5-1.1,1.1
						C13.3,28.6,13.8,29.1,14.4,29.1z"/>
					<path class="st6" d="M7.8,29.1H10c0.6,0,1.1-0.5,1.1-1.1c0-0.6-0.5-1.1-1.1-1.1H7.8c-0.6,0-1.1,0.5-1.1,1.1
						C6.6,28.6,7.1,29.1,7.8,29.1z"/>
					<path class="st7" d="M63.1,55.7c-0.6,0-1.1,0.5-1.1,1.1v11.1c0,1.8-1.5,3.3-3.3,3.3H5.5c-1.8,0-3.3-1.5-3.3-3.3V23.6
						c0-2,1.9-3.4,3.6-3.9l33.3-10c0.7-0.3,2.9-0.9,4.1,0c0.7,0.5,1.1,1.5,1.1,2.9c0,0.6,0.5,1.1,1.1,1.1c0.6,0,1.1-0.5,1.1-1.1
						c0-2.2-0.7-3.8-2-4.7c-2.4-1.6-5.7-0.3-6-0.2l-33.2,10c-2.6,0.7-5.2,2.9-5.2,6v44.3c0,3.1,2.5,5.5,5.5,5.5h53.1
						c3.1,0,5.5-2.5,5.5-5.5V56.8C64.2,56.2,63.7,55.7,63.1,55.7z"/>
					<path class="st6" d="M27.7,29.1h2.2c0.6,0,1.1-0.5,1.1-1.1c0-0.6-0.5-1.1-1.1-1.1h-2.2c-0.6,0-1.1,0.5-1.1,1.1
						C26.6,28.6,27.1,29.1,27.7,29.1z"/>
					<path class="st6" d="M14.4,69h2.2c0.6,0,1.1-0.5,1.1-1.1c0-0.6-0.5-1.1-1.1-1.1h-2.2c-0.6,0-1.1,0.5-1.1,1.1
						C13.3,68.5,13.8,69,14.4,69z"/>
					<path class="st7" d="M64.2,42.4V28c0-3.1-2.5-5.5-5.5-5.5H17.3l35-6.7c0,0,1.3-0.2,2.1,0.5c0.6,0.5,1,1.5,1,2.9
						c0,0.6,0.5,1.1,1.1,1.1c0.6,0,1.1-0.5,1.1-1.1c0-2.1-0.6-3.7-1.8-4.6c-1.7-1.4-3.9-0.9-3.9-0.9L5.3,22.5
						c-0.6,0.1-0.9,0.6-0.9,1.2c0.1,0.6,0.5,1,1.1,1h53.1c1.8,0,3.3,1.5,3.3,3.3v14.4H39.9c-1.2,0-2.2,1-2.2,2.2v6.6
						c0,1.2,1,2.2,2.2,2.2h24.4c1.2,0,2.2-1,2.2-2.2v-6.6C66.4,43.4,65.4,42.4,64.2,42.4z M39.9,51.3v-6.6h24.4l0,6.6H39.9z"/>
					<path class="st6" d="M49.8,29.1c0.6,0,1.1-0.5,1.1-1.1c0-0.6-0.5-1.1-1.1-1.1h-2.2c-0.6,0-1.1,0.5-1.1,1.1
						c0,0.6,0.5,1.1,1.1,1.1H49.8z"/>
					<path class="st6" d="M43.2,29.1c0.6,0,1.1-0.5,1.1-1.1c0-0.6-0.5-1.1-1.1-1.1H41c-0.6,0-1.1,0.5-1.1,1.1c0,0.6,0.5,1.1,1.1,1.1
						H43.2z"/>
					<path class="st6" d="M56.5,29.1c0.6,0,1.1-0.5,1.1-1.1c0-0.6-0.5-1.1-1.1-1.1h-2.2c-0.6,0-1.1,0.5-1.1,1.1
						c0,0.6,0.5,1.1,1.1,1.1H56.5z"/>
					<path class="st7" d="M43.2,46.8L43.2,46.8c-0.6,0-1.1,0.5-1.1,1.1c0,0.6,0.5,1.1,1.1,1.1c0.6,0,1.1-0.5,1.1-1.1
						C44.3,47.3,43.8,46.8,43.2,46.8z"/>
					<path class="st6" d="M43.2,69c0.6,0,1.1-0.5,1.1-1.1c0-0.6-0.5-1.1-1.1-1.1H41c-0.6,0-1.1,0.5-1.1,1.1c0,0.6,0.5,1.1,1.1,1.1
						H43.2z"/>
					<path class="st6" d="M56.5,69c0.6,0,1.1-0.5,1.1-1.1c0-0.6-0.5-1.1-1.1-1.1h-2.2c-0.6,0-1.1,0.5-1.1,1.1c0,0.6,0.5,1.1,1.1,1.1
						H56.5z"/>
					<path class="st6" d="M34.3,29.1h2.2c0.6,0,1.1-0.5,1.1-1.1c0-0.6-0.5-1.1-1.1-1.1h-2.2c-0.6,0-1.1,0.5-1.1,1.1
						C33.2,28.6,33.7,29.1,34.3,29.1z"/>
					<path class="st6" d="M34.3,69h2.2c0.6,0,1.1-0.5,1.1-1.1c0-0.6-0.5-1.1-1.1-1.1h-2.2c-0.6,0-1.1,0.5-1.1,1.1
						C33.2,68.5,33.7,69,34.3,69z"/>
					<path class="st6" d="M49.8,69c0.6,0,1.1-0.5,1.1-1.1c0-0.6-0.5-1.1-1.1-1.1h-2.2c-0.6,0-1.1,0.5-1.1,1.1c0,0.6,0.5,1.1,1.1,1.1
						H49.8z"/>
				</g>
			</g>
		</g>
		<g>
			<defs>
				<polygon id="SVGID_5_" points="83.4,22.6 10.7,22.6 10.1,0 82.8,0 				"/>
			</defs>
			<clipPath id="SVGID_3_">
				<use xlink:href="#SVGID_5_"  style="overflow:visible;"/>
			</clipPath>
			<g style="clip-path:url(#SVGID_3_);">
				<g>
					<g>
						<path class="st6" d="M41.6,33.2c-8,0-14.6-6.5-14.6-14.6c0-8,6.5-14.6,14.6-14.6c8,0,14.6,6.5,14.6,14.6
							C56.2,26.7,49.7,33.2,41.6,33.2z M41.6,10.5c-4.5,0-8.1,3.6-8.1,8.1c0,4.5,3.6,8.1,8.1,8.1c4.5,0,8.1-3.6,8.1-8.1
							C49.7,14.2,46.1,10.5,41.6,10.5z"/>
						<path class="st9" d="M41.6,5.7c7.1,0,12.9,5.8,12.9,12.9c0,7.1-5.8,12.9-12.9,12.9c-7.1,0-12.9-5.8-12.9-12.9
							C28.7,11.5,34.5,5.7,41.6,5.7 M41.6,28.4c5.4,0,9.8-4.4,9.8-9.8c0-5.4-4.4-9.8-9.8-9.8c-5.4,0-9.8,4.4-9.8,9.8
							C31.8,24,36.2,28.4,41.6,28.4 M41.6,2.4c-9,0-16.2,7.3-16.2,16.2c0,9,7.3,16.2,16.2,16.2c9,0,16.2-7.3,16.2-16.2
							C57.9,9.7,50.6,2.4,41.6,2.4L41.6,2.4z M41.6,25.1c-3.6,0-6.4-2.9-6.4-6.4c0-3.6,2.9-6.4,6.4-6.4c3.6,0,6.4,2.9,6.4,6.4
							C48.1,22.2,45.2,25.1,41.6,25.1L41.6,25.1z"/>
					</g>
				</g>
			</g>
		</g>
	</g>
</g>
</svg>
