<?xml version="1.0" encoding="utf-8"?>
<!-- Generator: Adobe Illustrator 21.0.0, SVG Export Plug-In . SVG Version: 6.00 Build 0)  -->
<svg version="1.1" xmlns="http://www.w3.org/2000/svg" xmlns:xlink="http://www.w3.org/1999/xlink" x="0px" y="0px"
	 viewBox="0 0 50.7 66.1" style="enable-background:new 0 0 50.7 66.1;" xml:space="preserve">
<style type="text/css">
	.st0{display:none;}
	.st1{display:inline;}
	.st2{clip-path:url(#SVGID_2_);}
	.st3{opacity:0.2;fill:url(#SVGID_3_);}
	.st4{opacity:0.2;fill:url(#SVGID_4_);}
	.st5{clip-path:url(#SVGID_2_);fill:#0A132A;}
	.st6{fill:#30BDBB;}
	.st7{fill:#8C909D;}
	.st8{clip-path:url(#SVGID_6_);}
	.st9{fill:#0A132A;}
</style>
<g id="Layer_4" class="st0">
</g>
<g id="Capa_1">
	<g>
		<defs>
			<rect id="SVGID_1_" x="-146.7" y="409.3" width="411.3" height="469"/>
		</defs>
		<clipPath id="SVGID_2_">
			<use xlink:href="#SVGID_1_"  style="overflow:visible;"/>
		</clipPath>
	</g>
</g>
<g id="Layer_1">
	<g id="contract" transform="translate(0 -0.039)">
		<path id="Path_42" class="st6" d="M28.4,49.4l-3.9,3.9L22.1,51c-0.4-0.4-1.1-0.4-1.6,0c-0.4,0.4-0.4,1.1,0,1.6l2.3,2.3
			c0.9,0.9,2.3,0.9,3.1,0l3.9-3.9c0.4-0.5,0.3-1.2-0.1-1.6C29.4,49.1,28.8,49.1,28.4,49.4L28.4,49.4z"/>
		<path id="Path_43" class="st6" d="M15.4,52.4c0,5.2,4.2,9.4,9.4,9.4c5.2,0,9.4-4.2,9.4-9.4c0-0.6-0.5-1.1-1.1-1.1
			c-0.6,0-1.1,0.5-1.1,1.1l0,0c0,4-3.2,7.2-7.2,7.2c-4,0-7.2-3.2-7.2-7.2c0-4,3.2-7.2,7.2-7.2c1.6,0,3.1,0.5,4.3,1.4
			c0.5,0.4,1.2,0.3,1.5-0.2c0.4-0.5,0.3-1.2-0.2-1.5l0,0c-4.1-3.1-10-2.3-13.1,1.9C16,48.4,15.4,50.4,15.4,52.4z"/>
		<path id="Path_44" class="st7" d="M39.7,8.9c0.6,0,1.1-0.5,1.1-1.1c0-0.6-0.5-1.1-1.1-1.1H11c-0.6,0-1.1,0.5-1.1,1.1v4.4
			c0,0.6,0.5,1.1,1.1,1.1h0h28.7c0.6,0,1.1-0.5,1.1-1.1c0-0.6-0.5-1.1-1.1-1.1H12.1V8.9H39.7z"/>
		<path id="Path_45" class="st7" d="M14.3,15.5c-0.6,0-1.1,0.5-1.1,1.1c0,0.6,0.5,1.1,1.1,1.1l0,0h22c0.6,0,1.1-0.5,1.1-1.1
			c0-0.6-0.5-1.1-1.1-1.1H14.3z"/>
		<path id="Path_46" class="st7" d="M43,23.2H18.7c-0.6,0-1.1,0.5-1.1,1.1s0.5,1.1,1.1,1.1H43c0.6,0,1.1-0.5,1.1-1.1
			S43.6,23.2,43,23.2z"/>
		<path id="Path_47" class="st7" d="M32,30.9c0-0.6-0.5-1.1-1.1-1.1h-22c-0.6,0-1.1,0.5-1.1,1.1S8.2,32,8.8,32h22
			C31.5,32,32,31.5,32,30.9L32,30.9z"/>
		<path id="Path_48" class="st7" d="M43,29.8h-7.7c-0.6,0-1.1,0.5-1.1,1.1s0.5,1.1,1.1,1.1H43c0.6,0,1.1-0.5,1.1-1.1
			S43.6,29.8,43,29.8L43,29.8z"/>
		<path id="Path_49" class="st7" d="M19.8,37.5c0.6,0,1.1-0.5,1.1-1.1c0-0.6-0.5-1.1-1.1-1.1h-11c-0.6,0-1.1,0.5-1.1,1.1
			c0,0.6,0.5,1.1,1.1,1.1H19.8z"/>
		<path id="Path_50" class="st7" d="M24.3,37.5H32c0.6,0,1.1-0.5,1.1-1.1c0-0.6-0.5-1.1-1.1-1.1h-7.7c-0.6,0-1.1,0.5-1.1,1.1
			C23.1,37,23.6,37.5,24.3,37.5z"/>
		<path id="Path_51" class="st7" d="M49.6,50.7c-0.6,0-1.1,0.5-1.1,1.1v11c0,0.6-0.5,1.1-1.1,1.1l0,0H3.3c-0.6,0-1.1-0.5-1.1-1.1
			l0,0V3.3c0-0.6,0.5-1.1,1.1-1.1h44.1c0.6,0,1.1,0.5,1.1,1.1v48.5C48.5,52.5,49,50.7,49.6,50.7c0.6,0,1.1,2.1,1.1,1.5V3.3
			c0-1.8-1.5-3.3-3.3-3.3l0,0H3.3C1.5,0,0,1.5,0,3.3v59.5c0,1.8,1.5,3.3,3.3,3.3l0,0h44.1c1.8,0,3.3-1.5,3.3-3.3l0,0v-11
			C50.7,51.2,50.2,50.7,49.6,50.7z"/>
	</g>
</g>
</svg>
