<?xml version="1.0" encoding="utf-8"?>
<!-- Generator: Adobe Illustrator 21.0.0, SVG Export Plug-In . SVG Version: 6.00 Build 0)  -->
<svg version="1.1" xmlns="http://www.w3.org/2000/svg" xmlns:xlink="http://www.w3.org/1999/xlink" x="0px" y="0px"
	 viewBox="0 0 75.8 63" style="enable-background:new 0 0 75.8 63;" xml:space="preserve">
<style type="text/css">
	.st0{display:none;}
	.st1{display:inline;}
	.st2{clip-path:url(#SVGID_2_);}
	.st3{opacity:0.2;fill:url(#SVGID_3_);}
	.st4{opacity:0.2;fill:url(#SVGID_4_);}
	.st5{clip-path:url(#SVGID_2_);fill:#0A132A;}
	.st6{fill:#30BDBB;}
	.st7{fill:#8C909D;}
	.st8{clip-path:url(#SVGID_6_);}
	.st9{fill:#0A132A;}
</style>
<g id="Layer_4" class="st0">
</g>
<g id="Capa_1">
</g>
<g id="Layer_1">
	<g transform="translate(0 -10.52)">
		<g transform="translate(0 10.52)">
			<path class="st6" d="M12,52.4h13.4l1.8-10.9H14.3L12,52.4z M16.4,44.1h7.7l-1,5.7h-7.9L16.4,44.1z"/>
			<path class="st6" d="M28.9,30.8l-2.8,1.6L25.8,34h-7.5l1.1-5.3h6.3l3.9-2.3l0-0.2H17.5l-2.2,10.3h12.6L28.9,30.8z"/>
			<path class="st7" d="M30.2,26.8l-6.6,3.9L21.9,29l-1.7,1l3,3.2l8.7-5.1L30.2,26.8z"/>
			<path class="st7" d="M75.2,4.7L72,0.9c-0.9-1-2.4-1.1-3.4-0.3l-2.8,2.4l6.4,7.5l2.8-2.4C76,7.2,76.1,5.7,75.2,4.7z"/>
			<path class="st7" d="M63.2,19.8l-2.8,2.4l9.1,37.6H4.2l9.6-39.8h29.5l4.1-3.3H11.2L0,63h73.7L63.2,19.8z"/>
			<path class="st7" d="M64.5,4L38.9,25.7l6.4,7.5L59.6,21l0,0l3.2-2.7l8.1-6.8L64.5,4z"/>
			<path class="st7" d="M33.6,36.6l10-2.4l-6-7.1L33.6,36.6z"/>
		</g>
	</g>
</g>
</svg>
