<svg xmlns="http://www.w3.org/2000/svg" width="738.78" height="626" viewBox="0 0 738.78 626"><defs><style>.a{fill:#00bd9a;}.b{fill:#2c2f33;}</style></defs><g transform="translate(-504.11 -221)"><g transform="translate(504.11 164.609)"><path class="a" d="M600.555,120.858l-7.756-55.4a10.529,10.529,0,0,0-12.022-8.949l-61.03,9.347a10.531,10.531,0,1,0,3.187,20.82L558.5,81.233c-47.559,58.8-98.709,108.882-152.284,149.011-46.618,34.919-95.163,62.441-144.284,81.806-83.6,32.955-140.69,30.791-141.251,30.77a10.531,10.531,0,0,0-1.006,21.038c.343.016,1.781.078,4.245.078,15.174,0,69.157-2.329,144.416-31.775,51.034-19.967,101.4-48.38,149.691-84.45,55.5-41.451,108.4-93.21,157.464-153.991l4.208,30.059a10.533,10.533,0,0,0,10.417,9.072,10.642,10.642,0,0,0,1.473-.1A10.531,10.531,0,0,0,600.555,120.858Z"/><path class="b" d="M719.348,624.419h-85.1a128.167,128.167,0,0,0,19.686-16.125,126.882,126.882,0,0,0-28.1-200.719V365.061a10.531,10.531,0,0,0-21.061,0v33.161a126.629,126.629,0,0,0-88.273,2.6V271.463a2.473,2.473,0,0,1,2.47-2.47H602.3a2.473,2.473,0,0,1,2.47,2.47V297.6a10.531,10.531,0,0,0,21.061,0V271.463A23.559,23.559,0,0,0,602.3,247.93H518.97a23.559,23.559,0,0,0-23.533,23.533V411.776a126.946,126.946,0,0,0-21.055,196.516,128.248,128.248,0,0,0,19.686,16.125h-66.5v-257.4a23.559,23.559,0,0,0-23.533-23.533H320.7a23.559,23.559,0,0,0-23.533,23.533v257.4H229.3V453.647a23.559,23.559,0,0,0-23.533-23.533H122.436A23.559,23.559,0,0,0,98.9,453.647V624.42H55.524V82.836A19.453,19.453,0,0,0,36.092,63.4H19.432A19.453,19.453,0,0,0,0,82.836V157.6a10.531,10.531,0,0,0,21.061,0V84.466h13.4V626.05a19.454,19.454,0,0,0,19.432,19.432H717.716V661.33H21.062V224.148a10.531,10.531,0,0,0-21.062,0V662.959a19.453,19.453,0,0,0,19.432,19.432H719.348a19.453,19.453,0,0,0,19.432-19.432V643.85A19.453,19.453,0,0,0,719.348,624.419Zm-511.111,0H119.965V453.647a2.473,2.473,0,0,1,2.47-2.47h83.332a2.473,2.473,0,0,1,2.47,2.47V624.419Zm109.995,0v-257.4a2.473,2.473,0,0,1,2.47-2.47h83.331a2.473,2.473,0,0,1,2.47,2.47v257.4H318.233Zm292.446-10.767a106.532,106.532,0,0,1-34.06,10.017c-.2.023-.4.05-.6.074-.807.092-1.613.17-2.421.244-1.232.108-2.466.206-3.705.271-.391.022-.782.033-1.173.051-1.517.063-3.037.111-4.565.111s-3.056-.048-4.577-.111c-.481-.02-.962-.043-1.442-.071-1.147-.063-2.29-.152-3.431-.251q-1.42-.128-2.835-.3c-.675-.078-1.349-.157-2.02-.248-.96-.131-1.916-.27-2.871-.427-.124-.02-.248-.043-.372-.065a105.742,105.742,0,0,1-35.372-12.695c-.058-.033-.118-.055-.176-.087A106.417,106.417,0,0,1,489.275,593.4,105.906,105.906,0,0,1,514.6,424.929c.257-.137.517-.267.775-.4a106.33,106.33,0,0,1,88.227-4.277c.219.088.44.172.658.261,1.312.534,2.612,1.1,3.9,1.693.515.235,1.029.481,1.541.724a105.947,105.947,0,0,1,1.359,190.565C610.935,613.55,610.8,613.59,610.678,613.652Z"/><path class="a" d="M569.051,508.324V470.815c12.934.923,17.739,6.837,22.174,6.837,5.544,0,8.131-7.021,8.131-10.532,0-9.054-17.738-12.934-30.3-13.3v-4.99c0-2.218-2.77-4.249-5.542-4.249-3.141,0-5.359,2.032-5.359,4.249v5.359c-17.555,1.848-35.108,11.087-35.108,34.369,0,23.651,18.478,30.3,35.108,36.216v43.422c-18.848-1.478-23.836-14.412-29.934-14.412-4.62,0-8.5,6.1-8.5,10.532,0,9.054,15.522,21.435,38.434,21.8h0v5.727c0,2.218,2.218,4.249,5.359,4.249,2.77,0,5.542-2.032,5.542-4.249v-6.283c19.956-2.772,33.629-15.337,33.629-38.065C602.68,522.367,585.127,514.237,569.051,508.324Zm-9.79-3.511c-9.795-3.7-17.739-7.575-17.738-18.107,0-9.61,7.391-14.229,17.738-15.522Zm8.684,63.01V528.835c9.054,3.88,16.26,9.053,16.26,20.695C584.205,560.063,577.922,565.977,567.945,567.823Z"/></g></g></svg>