<svg xmlns="http://www.w3.org/2000/svg" width="496" height="489.575" viewBox="0 0 496 489.575"><defs><style>.a{fill:#2c2f33;}.b{fill:#00bd9a;}</style></defs><g transform="translate(0 -0.5)"><path class="a" d="M432,245.3H416c0,92.633-75.367,168-168,168S80,337.938,80,245.3c0-85.6,64.4-156.316,147.273-166.582l-16.93,16.93,11.313,11.309L259.312,69.3,221.656,31.653,210.343,42.961l19.266,19.266C136.753,71.485,64,150.051,64,245.3c0,101.465,82.535,184,184,184s184-82.535,184-184Zm0,0"/><path class="a" d="M191.766,3.625,207.45.5l3.125,15.691-15.684,3.121Zm0,0"/><path class="a" d="M145.7,19.242l14.781-6.125L166.605,27.9l-14.777,6.125Zm0,0"/><path class="a" d="M103.563,43.547l13.293-8.887,8.891,13.3-13.3,8.883Zm0,0"/><path class="a" d="M66.98,75.6,78.293,64.289,89.609,75.6,78.293,86.918Zm0,0"/><path class="b" d="M224,141.3v8.57a56.075,56.075,0,0,0-48,55.43v8a56.07,56.07,0,0,0,56,56h32a8.005,8.005,0,0,1,8,8v8a8,8,0,0,1-8,8H232a8,8,0,0,1-8-8v-8H176v8a56.085,56.085,0,0,0,48,55.434V349.3a24,24,0,0,0,48,0v-8.566A56.079,56.079,0,0,0,320,285.3v-8a56.073,56.073,0,0,0-56-56H232a8,8,0,0,1-8-8v-8a8.005,8.005,0,0,1,8-8h32a8.005,8.005,0,0,1,8,8v8h48v-8a56.081,56.081,0,0,0-48-55.43V141.3a24,24,0,0,0-48,0Zm32,0v24h8a40.062,40.062,0,0,1,39.191,32H286.633A24.051,24.051,0,0,0,264,181.3H232a24.031,24.031,0,0,0-24,24v8a24.029,24.029,0,0,0,24,24h32a40.047,40.047,0,0,1,40,40v8a40.045,40.045,0,0,1-40,40h-8v24a8,8,0,0,1-16,0v-24h-8a40.058,40.058,0,0,1-39.191-32h16.559A24.046,24.046,0,0,0,232,309.3h32a24.029,24.029,0,0,0,24-24v-8a24.031,24.031,0,0,0-24-24H232a40.045,40.045,0,0,1-40-40v-8a40.047,40.047,0,0,1,40-40h8v-24a8,8,0,0,1,16,0Zm0,0"/><path class="a" d="M68.449,98.379,56.07,88.234a248.013,248.013,0,0,0,7.09,322.41l11.918-10.676a232,232,0,0,1-6.629-301.59Zm0,0"/><path class="a" d="M285.422,474.391l15.684-3.125,3.125,15.684-15.684,3.125Zm0,0"/><path class="a" d="M329.375,462.707l14.781-6.125,6.121,14.781L335.5,477.488Zm0,0"/><path class="a" d="M370.223,442.637l13.293-8.883,8.891,13.3-13.3,8.887Zm0,0"/><path class="a" d="M406.387,415.02,417.7,403.7l11.313,11.316L417.7,426.332Zm0,0"/><path class="a" d="M432.84,79.969,420.922,90.645a232.014,232.014,0,0,1,6.629,301.6l12.379,10.145a248.024,248.024,0,0,0-7.09-322.418Zm0,0"/></g></svg>