<svg xmlns="http://www.w3.org/2000/svg" width="491.617" height="414.005" viewBox="0 0 491.617 414.005"><g transform="translate(0 -0.309)"><path d="M483.617,153.313H453.808V52.739c0-4.418-3.367-8.426-7.785-8.426H249.8L206.437,2.384a7.844,7.844,0,0,0-5.574-2.07h-157A8.032,8.032,0,0,0,38.1,2.786a7.74,7.74,0,0,0-2.23,5.734l5.516,144.793H8a8.2,8.2,0,0,0-7.875,9.6L43.761,407.669a8.045,8.045,0,0,0,7.875,6.645H440.507a8.018,8.018,0,0,0,7.879-6.633L491.5,162.97a8.294,8.294,0,0,0-1.75-6.664,8.127,8.127,0,0,0-6.129-2.992Zm-431.441-137H197.617l43.359,41.93a7.82,7.82,0,0,0,5.574,2.07H437.809v93h-23V93.563a8.311,8.311,0,0,0-8.109-8.25H84.914a8.31,8.31,0,0,0-8.105,8.25v59.75H57.395Zm346.633,137h-306v-52h306Zm34.984,245H58.336l-40.785-229H474.086Zm0,0"/><path d="M252.828,279.313H238.785c-27,0-48.977,22.418-48.977,49.414v36.559a8.035,8.035,0,0,0,8.016,8.027h95.965a8.038,8.038,0,0,0,8.02-8.027V328.727c0-27-21.98-49.414-48.98-49.414Zm32.98,78h-80V328.727c0-18.172,14.8-33.414,32.977-33.414h14.043c18.18,0,32.98,15.242,32.98,33.414Zm0,0" transform="translate(-89 2)" fill="#00bd9a"/><path d="M245.809,276.93a35.8,35.8,0,1,0-35.8-35.8A35.8,35.8,0,0,0,245.809,276.93Zm0-55.59a19.8,19.8,0,1,1-19.8,19.8,19.806,19.806,0,0,1,19.8-19.8Zm0,0" transform="translate(-89 2)" fill="#00bd9a"/><line x2="158" transform="translate(245.5 263.809)" fill="none" stroke="#000" stroke-linecap="round" stroke-width="15"/><line x2="107" transform="translate(245.5 303.809)" fill="none" stroke="#000" stroke-linecap="round" stroke-width="15"/><line x2="39" transform="translate(245.5 343.809)" fill="none" stroke="#000" stroke-linecap="round" stroke-width="15"/><line x2="28" transform="translate(375.5 303.809)" fill="none" stroke="#000" stroke-linecap="round" stroke-width="15"/><line x2="85" transform="translate(318.5 343.809)" fill="none" stroke="#000" stroke-linecap="round" stroke-width="15"/></g></svg>