<svg xmlns="http://www.w3.org/2000/svg" width="392.533" height="512" viewBox="0 0 392.533 512">
  <g id="contract" transform="translate(0 -0.039)">
    <path id="Path_42" data-name="Path 42" d="M130.166,358.648l-30.2,30.125L81.871,370.682A8.538,8.538,0,1,0,69.837,382.8L87.929,400.89a17.2,17.2,0,0,0,24.15,0L142.2,370.682a8.534,8.534,0,0,0-12.033-12.033Zm0,0" transform="translate(89.487 23.77)" fill="#00bd9a"/>
    <path id="Path_43" data-name="Path 43" d="M32,384.572a72.533,72.533,0,0,0,145.067,0,8.533,8.533,0,1,0-17.067,0A55.473,55.473,0,1,1,137.813,340.2a8.534,8.534,0,0,0,10.242-13.654A72.533,72.533,0,0,0,32,384.572Zm0,0" transform="translate(87.133 20.8)" fill="#00bd9a"/>
    <path id="Path_44" data-name="Path 44" d="M302.4,65.106a8.533,8.533,0,0,0,0-17.067H80.533A8.534,8.534,0,0,0,72,56.572V90.706a8.531,8.531,0,0,0,8.533,8.533H302.4a8.533,8.533,0,0,0,0-17.067H89.067V65.106Zm0,0" transform="translate(4.8 3.2)"/>
    <path id="Path_45" data-name="Path 45" d="M104.533,112.039a8.533,8.533,0,1,0,0,17.067H275.2a8.533,8.533,0,1,0,0-17.067Zm0,0" transform="translate(6.4 7.467)"/>
    <path id="Path_46" data-name="Path 46" d="M324.267,168.039H136.533a8.533,8.533,0,1,0,0,17.067H324.267a8.533,8.533,0,0,0,0-17.067Zm0,0" transform="translate(8.533 11.2)"/>
    <path id="Path_47" data-name="Path 47" d="M243.733,224.572a8.534,8.534,0,0,0-8.533-8.533H64.533a8.533,8.533,0,1,0,0,17.067H235.2A8.531,8.531,0,0,0,243.733,224.572Zm0,0" transform="translate(3.733 14.4)"/>
    <path id="Path_48" data-name="Path 48" d="M316.267,216.039H256.533a8.533,8.533,0,0,0,0,17.067h59.733a8.533,8.533,0,0,0,0-17.067Zm0,0" transform="translate(16.533 14.4)"/>
    <path id="Path_49" data-name="Path 49" d="M149.867,273.106a8.533,8.533,0,1,0,0-17.067H64.533a8.533,8.533,0,0,0,0,17.067Zm0,0" transform="translate(3.733 17.067)"/>
    <path id="Path_50" data-name="Path 50" d="M176.533,273.106h59.733a8.533,8.533,0,0,0,0-17.067H176.533a8.533,8.533,0,0,0,0,17.067Zm0,0" transform="translate(11.2 17.067)"/>
    <path id="Path_51" data-name="Path 51" d="M384,392.572a8.534,8.534,0,0,0-8.533,8.533v85.333a8.531,8.531,0,0,1-8.533,8.533H25.6a8.531,8.531,0,0,1-8.533-8.533V25.639A8.534,8.534,0,0,1,25.6,17.106H366.933a8.534,8.534,0,0,1,8.533,8.533V401.106c0,4.712,3.821-8.533,8.533-8.533s8.533,16.337,8.533,11.625V25.639a25.6,25.6,0,0,0-25.6-25.6H25.6A25.6,25.6,0,0,0,0,25.639v460.8a25.6,25.6,0,0,0,25.6,25.6H366.933a25.6,25.6,0,0,0,25.6-25.6V401.106A8.534,8.534,0,0,0,384,392.572Zm0,0" transform="translate(0 0)"/>
  </g>
</svg>
