<svg xmlns="http://www.w3.org/2000/svg" width="484.751" height="403.088" viewBox="0 0 484.751 403.088"><defs><style>.a{fill:#00bd9a;}.b{fill:#2c2f33;}</style></defs><g transform="translate(0 -10.52)"><g transform="translate(0 10.52)"><path class="a" d="M19.777,148.422h85.516l11.714-69.551H34.422ZM47.968,95.557h49.3l-6.09,36.171H40.352Z" transform="translate(56.986 186.43)"/><path class="a" d="M111.967,83.2,94.245,93.615l-1.677,9.948H44.632l7.185-34.122H91.9l24.806-14.4.229-1.347h-77.9L25.225,119.3h80.66Z" transform="translate(72.684 113.876)"/><path class="b" d="M97.707,54.736,55.282,79.371,44.213,68.729,33.2,75.428,52.562,95.9,108.027,63.31Z" transform="translate(95.666 116.887)"/><path class="b" d="M168.817,40.633l-20.839-24.67a15.357,15.357,0,0,0-21.635-1.82L108.387,29.315l40.65,48.126L167,62.272A15.359,15.359,0,0,0,168.817,40.633Z" transform="translate(312.31 -10.52)"/><path class="b" d="M404.115,58.143,386.164,73.211l58.245,240.276H26.7L88.4,58.974H277.309l25.9-20.995H71.884L0,334.486H471.109Z" transform="translate(0 68.603)"/><path class="b" d="M228.2,17.082,64.062,155.731l40.658,48.134L196.889,126l.066-.058,20.265-17.121L268.854,65.2Z" transform="translate(184.59 8.389)"/><path class="b" d="M55.4,115.921l63.718-15.444L80.886,55.2Z" transform="translate(159.643 118.235)"/></g></g></svg>