<svg width="222" height="50" viewBox="0 0 222 50" fill="none" xmlns="http://www.w3.org/2000/svg">
<g clip-path="url(#clip0)">
<path d="M19.3708 14.5164H11.9574V28.7979C11.9574 30.0308 12.2377 30.9115 12.7909 31.4472C13.3515 31.983 14.1777 32.2765 15.2694 32.3426C16.3685 32.4013 17.7332 32.394 19.3634 32.3132V38.0816C14.4211 38.6761 10.873 38.2504 8.71906 36.8046C6.56512 35.3589 5.48814 32.6875 5.48814 28.8052V14.5164H0V8.32966H5.5029V1.90078L11.9574 0V8.32966H19.3708V14.5164Z" fill="#26536B"/>
<path d="M46.7155 8.32959H53.17V38.0742H46.7155V33.7883C44.2812 37.1568 40.7921 38.8448 36.2482 38.8448C32.1395 38.8448 28.6356 37.3256 25.7219 34.2947C22.8082 31.2637 21.355 27.5649 21.355 23.1982C21.355 18.7949 22.8082 15.0887 25.7219 12.0724C28.6282 9.05614 32.1395 7.55167 36.2482 7.55167C40.7921 7.55167 44.2812 9.2176 46.7155 12.5495V8.32959ZM30.5093 30.0161C32.3018 31.8215 34.5516 32.7241 37.2662 32.7241C39.9734 32.7241 42.2306 31.8215 44.0231 30.0161C45.8156 28.2107 46.7155 25.943 46.7155 23.2056C46.7155 20.4682 45.8156 18.2004 44.0231 16.3951C42.2306 14.5897 39.9734 13.687 37.2662 13.687C34.5516 13.687 32.3018 14.5897 30.5093 16.3951C28.7168 18.2004 27.8168 20.4682 27.8168 23.2056C27.8168 25.943 28.7168 28.2107 30.5093 30.0161Z" fill="#26536B"/>
<path d="M108.31 8.32959H114.764V38.0742H108.31V33.7883C105.876 37.1568 102.386 38.8448 97.8425 38.8448C93.7337 38.8448 90.2299 37.3256 87.3161 34.2947C84.4024 31.2637 82.9492 27.5649 82.9492 23.1982C82.9492 18.7949 84.4024 15.0887 87.3161 12.0724C90.2225 9.05614 93.7337 7.55167 97.8425 7.55167C102.386 7.55167 105.876 9.2176 108.31 12.5495V8.32959ZM92.1035 30.0161C93.896 31.8215 96.1458 32.7241 98.8604 32.7241C101.568 32.7241 103.825 31.8215 105.617 30.0161C107.41 28.2107 108.31 25.943 108.31 23.2056C108.31 20.4682 107.41 18.2004 105.617 16.3951C103.825 14.5897 101.568 13.687 98.8604 13.687C96.1458 13.687 93.896 14.5897 92.1035 16.3951C90.311 18.2004 89.4111 20.4682 89.4111 23.2056C89.4111 25.943 90.311 28.2107 92.1035 30.0161Z" fill="#26536B"/>
<path d="M137.993 7.55905C142.102 7.55905 145.606 9.07821 148.519 12.1092C151.426 15.1401 152.886 18.839 152.886 23.2056C152.886 27.609 151.433 31.3151 148.519 34.3314C145.606 37.3477 142.102 38.8522 137.993 38.8522C133.449 38.8522 129.96 37.1862 127.526 33.8544V49.978H121.071V8.32964H127.526V12.6156C129.96 9.23966 133.449 7.55905 137.993 7.55905ZM130.218 30.0161C132.011 31.8215 134.261 32.7242 136.975 32.7242C139.682 32.7242 141.939 31.8215 143.732 30.0161C145.524 28.2108 146.424 25.943 146.424 23.2056C146.424 20.4682 145.524 18.2005 143.732 16.3951C141.939 14.5897 139.682 13.687 136.975 13.687C134.261 13.687 132.011 14.5897 130.218 16.3951C128.426 18.2005 127.526 20.4682 127.526 23.2056C127.526 25.943 128.426 28.2108 130.218 30.0161Z" fill="#26536B"/>
<path d="M181.256 8.32959H187.71V38.0742H181.256V33.7883C178.822 37.1568 175.333 38.8448 170.789 38.8448C166.68 38.8448 163.176 37.3256 160.262 34.2947C157.349 31.2637 155.896 27.5649 155.896 23.1982C155.896 18.7949 157.349 15.0887 160.262 12.0724C163.169 9.05614 166.68 7.55167 170.789 7.55167C175.333 7.55167 178.822 9.2176 181.256 12.5495V8.32959ZM165.05 30.0161C166.842 31.8215 169.092 32.7241 171.807 32.7241C174.514 32.7241 176.771 31.8215 178.564 30.0161C180.356 28.2107 181.256 25.943 181.256 23.2056C181.256 20.4682 180.356 18.2004 178.564 16.3951C176.771 14.5897 174.514 13.687 171.807 13.687C169.092 13.687 166.842 14.5897 165.05 16.3951C163.257 18.2004 162.357 20.4682 162.357 23.2056C162.357 25.943 163.257 28.2107 165.05 30.0161Z" fill="#26536B"/>
<path d="M214.178 8.32968H221.053L209.575 39.0283C206.705 46.7195 201.837 50.3743 194.984 49.978V43.9674C197.02 44.0848 198.65 43.6592 199.889 42.6905C201.121 41.7217 202.139 40.2026 202.936 38.1403L203.238 37.5459L190.558 8.33702H197.617L206.536 29.9281L214.178 8.32968Z" fill="#26536B"/>
<path d="M76.7088 8.32968L72.3714 14.399H72.3861L69.5093 18.384C68.0709 20.3802 69.5019 23.1616 71.973 23.1616C72.9541 23.1616 73.8762 22.6919 74.4442 21.8993L81.1126 12.6083L84.2033 8.32968H76.7088Z" fill="#00A9DE"/>
<path d="M58.9902 8.32968V14.399H72.3713L76.7087 8.32968H58.9902Z" fill="#0B84AE"/>
<path d="M67.1857 32.0051L68.0192 30.8456L70.0994 27.9467C71.5378 25.9432 70.0994 23.1617 67.6209 23.1617C66.6398 23.1617 65.7177 23.6314 65.1498 24.424L58.3928 33.7885L55.2578 38.0744H62.9958L67.2152 32.0051H67.1857Z" fill="#B2F000"/>
<path d="M81.7173 32.0051H67.215L62.9956 38.0744H81.7173V32.0051Z" fill="#87B613"/>
</g>
<defs>
<clipPath id="clip0">
<rect width="221.053" height="50" fill="white"/>
</clipPath>
</defs>
</svg>
